# xmcd CD database file
#
# Track frame offsets:
#	150
#	19315
#	36410
#	56441
#	81151
#	101584
#	118839
#	128384
#	139111
#	156454
#	172558
#	194859
#	209654
#	234384
#	252009
#	266523
#	274475
#	286006
#
# Disc length: 4005 seconds
#
# Revision: 2
# Processed by: cddbd v1.4b41PL1 Copyright (c) Steve Scherf et al.
# Submitted via: Feurio! 1.60 - http://www.feurio.com
#
DISCID=070fa312,100fa312
DTITLE=Country Trash - Best of
DYEAR=1900
DGENRE=
TTITLE0=Jewel - Down so long
TTITLE1=Joe Grushecky - She's my Everything
TTITLE2=The Wallflowers - Letters from the Wasteland
TTITLE3=Mark Knopfler - El Macho
TTITLE4=The Notting Hillibillies - Your own sweet Way
TTITLE5=The Notting Hillibillies - Blues stay away from me
TTITLE6=Johnny Cash - Won't back down
TTITLE7=Johnny Cash - Solitary Man
TTITLE8=Johnny Cash - One
TTITLE9=Bill Wyman's Rhythm Kings - Spooky
TTITLE10=Mark Knopfler - What it is
TTITLE11=Jewel - Kiss the Flame
TTITLE12=Mark Knopfler - Sailing to Philadelphia
TTITLE13=Jewel - Hands
TTITLE14=Johnny Cash - Fields of Diamonds
TTITLE15=Johnny Cash - Country Trash
TTITLE16=Johnny Cash - That lucky old Sun
TTITLE17=Johnny Cash - Nobody
EXTD=
EXTT0=
EXTT1=
EXTT2=
EXTT3=
EXTT4=
EXTT5=
EXTT6=
EXTT7=
EXTT8=
EXTT9=
EXTT10=
EXTT11=
EXTT12=
EXTT13=
EXTT14=
EXTT15=
EXTT16=
EXTT17=
PLAYORDER=
